<svg height="958" width="720" xmlns="http://www.w3.org/2000/svg">
<rect height="958" fill="#555" width="720"></rect>
<text fill="#7f7" font-family="Courier New" font-size="12" xml:space="preserve">
<tspan x="10" y="26">6 megabytes installed</tspan>
<tspan x="10" y="42"></tspan>
<tspan x="10" y="58">node_modules</tspan>
<tspan x="10" y="74">└─┬ sheetify@6.0.1 </tspan>
<tspan x="10" y="90">  ├─┬ falafel@1.2.0 </tspan>
<tspan x="10" y="106">  │ ├── acorn@1.2.2 </tspan>
<tspan x="10" y="122">  │ ├── foreach@2.0.5 </tspan>
<tspan x="10" y="138">  │ ├── isarray@0.0.1 </tspan>
<tspan x="10" y="154">  │ └── object-keys@1.0.11 </tspan>
<tspan x="10" y="170">  ├── insert-css@2.0.0 </tspan>
<tspan x="10" y="186">  ├─┬ map-limit@0.0.1 </tspan>
<tspan x="10" y="202">  │ └─┬ once@1.3.3 </tspan>
<tspan x="10" y="218">  │   └── wrappy@1.0.2 </tspan>
<tspan x="10" y="234">  ├─┬ postcss@5.2.17 </tspan>
<tspan x="10" y="250">  │ ├─┬ chalk@1.1.3 </tspan>
<tspan x="10" y="266">  │ │ ├── ansi-styles@2.2.1 </tspan>
<tspan x="10" y="282">  │ │ ├── escape-string-regexp@1.0.5 </tspan>
<tspan x="10" y="298">  │ │ ├─┬ has-ansi@2.0.0 </tspan>
<tspan x="10" y="314">  │ │ │ └── ansi-regex@2.1.1 </tspan>
<tspan x="10" y="330">  │ │ ├── strip-ansi@3.0.1 </tspan>
<tspan x="10" y="346">  │ │ └── supports-color@2.0.0 </tspan>
<tspan x="10" y="362">  │ ├── js-base64@2.1.9 </tspan>
<tspan x="10" y="378">  │ ├── source-map@0.5.6 </tspan>
<tspan x="10" y="394">  │ └─┬ supports-color@3.2.3 </tspan>
<tspan x="10" y="410">  │   └── has-flag@1.0.0 </tspan>
<tspan x="10" y="426">  ├─┬ postcss-prefix@2.0.0 </tspan>
<tspan x="10" y="442">  │ └─┬ postcss-selector-parser@1.3.3 </tspan>
<tspan x="10" y="458">  │   ├── flatten@1.0.2 </tspan>
<tspan x="10" y="474">  │   ├── indexes-of@1.0.1 </tspan>
<tspan x="10" y="490">  │   └── uniq@1.0.1 </tspan>
<tspan x="10" y="506">  ├─┬ resolve@1.3.2 </tspan>
<tspan x="10" y="522">  │ └── path-parse@1.0.5 </tspan>
<tspan x="10" y="538">  ├── stack-trace@0.0.9 </tspan>
<tspan x="10" y="554">  ├─┬ static-eval@1.1.1 </tspan>
<tspan x="10" y="570">  │ └─┬ escodegen@1.8.1 </tspan>
<tspan x="10" y="586">  │   ├── esprima@2.7.3 </tspan>
<tspan x="10" y="602">  │   ├── estraverse@1.9.3 </tspan>
<tspan x="10" y="618">  │   ├── esutils@2.0.2 </tspan>
<tspan x="10" y="634">  │   ├─┬ optionator@0.8.2 </tspan>
<tspan x="10" y="650">  │   │ ├── deep-is@0.1.3 </tspan>
<tspan x="10" y="666">  │   │ ├── fast-levenshtein@2.0.6 </tspan>
<tspan x="10" y="682">  │   │ ├── levn@0.3.0 </tspan>
<tspan x="10" y="698">  │   │ ├── prelude-ls@1.1.2 </tspan>
<tspan x="10" y="714">  │   │ ├── type-check@0.3.2 </tspan>
<tspan x="10" y="730">  │   │ └── wordwrap@1.0.0 </tspan>
<tspan x="10" y="746">  │   └─┬ source-map@0.2.0 </tspan>
<tspan x="10" y="762">  │     └── amdefine@1.0.1 </tspan>
<tspan x="10" y="778">  ├── style-resolve@1.0.1 </tspan>
<tspan x="10" y="794">  ├─┬ through2@2.0.3 </tspan>
<tspan x="10" y="810">  │ └─┬ readable-stream@2.2.9 </tspan>
<tspan x="10" y="826">  │   ├── buffer-shims@1.0.0 </tspan>
<tspan x="10" y="842">  │   ├── core-util-is@1.0.2 </tspan>
<tspan x="10" y="858">  │   ├── inherits@2.0.3 </tspan>
<tspan x="10" y="874">  │   ├── isarray@1.0.0 </tspan>
<tspan x="10" y="890">  │   ├── process-nextick-args@1.0.7 </tspan>
<tspan x="10" y="906">  │   ├── string_decoder@1.0.0 </tspan>
<tspan x="10" y="922">  │   └── util-deprecate@1.0.2 </tspan>
<tspan x="10" y="938">  └── xtend@4.0.1</tspan>
</text>
</svg>
